<mxfile host="app.diagrams.net" modified="2021-12-20T00:27:48.358Z" agent="5.0 (X11)" etag="njC1mMX1iZFEu6J4i6Ak" version="16.0.0" type="github" pages="5">
  <diagram id="e2d6PszBdxDz3bTxNESk" name="class">
    <mxGraphModel dx="771" dy="437" grid="1" gridSize="10" guides="1" tooltips="1" connect="1" arrows="1" fold="1" page="1" pageScale="1" pageWidth="850" pageHeight="1100" math="0" shadow="0">
      <root>
        <mxCell id="0" />
        <mxCell id="1" parent="0" />
        <mxCell id="Kr84WzqqIrSe_lvxG35l-1" value="CGateway" style="swimlane;fontStyle=1;align=center;verticalAlign=top;childLayout=stackLayout;horizontal=1;startSize=26;horizontalStack=0;resizeParent=1;resizeParentMax=0;resizeLast=0;collapsible=1;marginBottom=0;fillColor=#FAE5C7;strokeColor=#0F8B8D;fontColor=#143642;" vertex="1" parent="1">
          <mxGeometry x="280" y="40" width="220" height="180" as="geometry">
            <mxRectangle x="-80" y="480" width="80" height="26" as="alternateBounds" />
          </mxGeometry>
        </mxCell>
        <mxCell id="Kr84WzqqIrSe_lvxG35l-2" value="- lora: CLoraComm&#xa;- tcpclient: CTCPclient&#xa;&#xa;&#xa;&#xa;&#xa;&#xa;" style="text;strokeColor=none;fillColor=none;align=left;verticalAlign=top;spacingLeft=4;spacingRight=4;overflow=hidden;rotatable=0;points=[[0,0.5],[1,0.5]];portConstraint=eastwest;fontColor=#143642;" vertex="1" parent="Kr84WzqqIrSe_lvxG35l-1">
          <mxGeometry y="26" width="220" height="54" as="geometry" />
        </mxCell>
        <mxCell id="Kr84WzqqIrSe_lvxG35l-3" value="" style="line;strokeWidth=1;fillColor=none;align=left;verticalAlign=middle;spacingTop=-1;spacingLeft=3;spacingRight=3;rotatable=0;labelPosition=right;points=[];portConstraint=eastwest;labelBackgroundColor=#DAD2D8;strokeColor=#0F8B8D;fontColor=#143642;" vertex="1" parent="Kr84WzqqIrSe_lvxG35l-1">
          <mxGeometry y="80" width="220" height="2" as="geometry" />
        </mxCell>
        <mxCell id="Kr84WzqqIrSe_lvxG35l-4" value="+ CGateway(void)&#xa;+ ~CGateway(void)&#xa;&#xa;+ run(void) void&#xa;- tLoraRecv(void*) void&#xa;- tTCPRecv(void*) void&#xa;" style="text;strokeColor=none;fillColor=none;align=left;verticalAlign=top;spacingLeft=4;spacingRight=4;overflow=hidden;rotatable=0;points=[[0,0.5],[1,0.5]];portConstraint=eastwest;fontColor=#143642;" vertex="1" parent="Kr84WzqqIrSe_lvxG35l-1">
          <mxGeometry y="82" width="220" height="98" as="geometry" />
        </mxCell>
        <mxCell id="Kr84WzqqIrSe_lvxG35l-5" value="" style="endArrow=diamondThin;endFill=1;endSize=24;html=1;rounded=0;sketch=0;fontColor=#143642;strokeColor=#A8201A;fillColor=#FAE5C7;exitX=0;exitY=0.5;exitDx=0;exitDy=0;entryX=1.01;entryY=0.728;entryDx=0;entryDy=0;entryPerimeter=0;" edge="1" parent="1" source="Kr84WzqqIrSe_lvxG35l-6">
          <mxGeometry width="160" relative="1" as="geometry">
            <mxPoint x="558.9" y="135" as="sourcePoint" />
            <mxPoint x="501.0999999999999" y="95.31200000000001" as="targetPoint" />
          </mxGeometry>
        </mxCell>
        <mxCell id="Kr84WzqqIrSe_lvxG35l-6" value="CLoraComm" style="rounded=0;whiteSpace=wrap;html=1;sketch=0;fontColor=#143642;strokeColor=#0F8B8D;fillColor=#FAE5C7;fontStyle=1" vertex="1" parent="1">
          <mxGeometry x="558.9" y="80" width="120" height="30" as="geometry" />
        </mxCell>
        <mxCell id="Kr84WzqqIrSe_lvxG35l-7" value="" style="endArrow=diamondThin;endFill=1;endSize=24;html=1;rounded=0;sketch=0;fontColor=#143642;strokeColor=#A8201A;fillColor=#FAE5C7;exitX=0;exitY=0.5;exitDx=0;exitDy=0;entryX=1.005;entryY=0.442;entryDx=0;entryDy=0;entryPerimeter=0;" edge="1" parent="1">
          <mxGeometry width="160" relative="1" as="geometry">
            <mxPoint x="558.9000000000001" y="185" as="sourcePoint" />
            <mxPoint x="500" y="185.56000000000006" as="targetPoint" />
          </mxGeometry>
        </mxCell>
        <mxCell id="Kr84WzqqIrSe_lvxG35l-8" value="CTCPclient" style="rounded=0;whiteSpace=wrap;html=1;sketch=0;fontColor=#143642;strokeColor=#0F8B8D;fillColor=#FAE5C7;fontStyle=1" vertex="1" parent="1">
          <mxGeometry x="558.9" y="170" width="120" height="30" as="geometry" />
        </mxCell>
      </root>
    </mxGraphModel>
  </diagram>
  <diagram id="jL0FBZpTIhR-3-RqR1rX" name="constructor">
    <mxGraphModel dx="931" dy="527" grid="1" gridSize="10" guides="1" tooltips="1" connect="1" arrows="1" fold="1" page="1" pageScale="1" pageWidth="850" pageHeight="1100" math="0" shadow="0">
      <root>
        <mxCell id="TPhWPj7ktUSEMXJKfaup-0" />
        <mxCell id="TPhWPj7ktUSEMXJKfaup-1" parent="TPhWPj7ktUSEMXJKfaup-0" />
        <mxCell id="TPhWPj7ktUSEMXJKfaup-2" style="rounded=1;sketch=0;orthogonalLoop=1;jettySize=auto;html=1;exitX=0.5;exitY=1;exitDx=0;exitDy=0;entryX=0.5;entryY=0;entryDx=0;entryDy=0;fontColor=#143642;strokeColor=#A8201A;fillColor=#FAE5C7;" edge="1" parent="TPhWPj7ktUSEMXJKfaup-1" source="TPhWPj7ktUSEMXJKfaup-3" target="TPhWPj7ktUSEMXJKfaup-8">
          <mxGeometry relative="1" as="geometry">
            <mxPoint x="415" y="130" as="targetPoint" />
          </mxGeometry>
        </mxCell>
        <mxCell id="TPhWPj7ktUSEMXJKfaup-3" value="CGateway" style="ellipse;whiteSpace=wrap;html=1;fillColor=#FAE5C7;strokeColor=#0F8B8D;fontColor=#143642;fontStyle=1" vertex="1" parent="TPhWPj7ktUSEMXJKfaup-1">
          <mxGeometry x="350.37" y="40" width="125.5" height="50" as="geometry" />
        </mxCell>
        <mxCell id="TPhWPj7ktUSEMXJKfaup-4" style="edgeStyle=orthogonalEdgeStyle;rounded=1;orthogonalLoop=1;jettySize=auto;html=1;exitX=0.5;exitY=1;exitDx=0;exitDy=0;entryX=0.5;entryY=0;entryDx=0;entryDy=0;fontSize=11;strokeColor=#A8201A;" edge="1" parent="TPhWPj7ktUSEMXJKfaup-1">
          <mxGeometry relative="1" as="geometry">
            <mxPoint x="413.3699999999999" y="160" as="sourcePoint" />
            <mxPoint x="413.1199999999999" y="180" as="targetPoint" />
          </mxGeometry>
        </mxCell>
        <mxCell id="TPhWPj7ktUSEMXJKfaup-5" value="end" style="ellipse;whiteSpace=wrap;html=1;fillColor=#FAE5C7;strokeColor=#0F8B8D;fontColor=#143642;fontStyle=1" vertex="1" parent="TPhWPj7ktUSEMXJKfaup-1">
          <mxGeometry x="389.75" y="290" width="48" height="30" as="geometry" />
        </mxCell>
        <mxCell id="TPhWPj7ktUSEMXJKfaup-6" style="edgeStyle=orthogonalEdgeStyle;rounded=1;orthogonalLoop=1;jettySize=auto;html=1;exitX=0.5;exitY=1;exitDx=0;exitDy=0;entryX=0.5;entryY=0;entryDx=0;entryDy=0;fontSize=10;strokeColor=#A8201A;" edge="1" parent="TPhWPj7ktUSEMXJKfaup-1" source="TPhWPj7ktUSEMXJKfaup-7" target="TPhWPj7ktUSEMXJKfaup-10">
          <mxGeometry relative="1" as="geometry" />
        </mxCell>
        <mxCell id="TPhWPj7ktUSEMXJKfaup-7" value="&lt;b&gt;Create&lt;/b&gt; &lt;b&gt;CLoraComm &lt;/b&gt;&lt;i&gt;lora&lt;/i&gt;&lt;br&gt;&lt;b&gt;&lt;/b&gt;" style="rounded=0;whiteSpace=wrap;html=1;sketch=0;fontColor=#143642;strokeColor=#0F8B8D;fillColor=#FAE5C7;" vertex="1" parent="TPhWPj7ktUSEMXJKfaup-1">
          <mxGeometry x="338.37" y="180" width="150.25" height="30" as="geometry" />
        </mxCell>
        <mxCell id="TPhWPj7ktUSEMXJKfaup-8" value="&lt;b&gt;Create&lt;/b&gt; &lt;b&gt;CTCPclient &lt;/b&gt;&lt;i&gt;tcpclient&lt;/i&gt;" style="rounded=0;whiteSpace=wrap;html=1;sketch=0;fontColor=#143642;strokeColor=#0F8B8D;fillColor=#FAE5C7;" vertex="1" parent="TPhWPj7ktUSEMXJKfaup-1">
          <mxGeometry x="338" y="130" width="150.25" height="30" as="geometry" />
        </mxCell>
        <mxCell id="TPhWPj7ktUSEMXJKfaup-9" style="edgeStyle=orthogonalEdgeStyle;rounded=1;orthogonalLoop=1;jettySize=auto;html=1;exitX=0.5;exitY=1;exitDx=0;exitDy=0;entryX=0.5;entryY=0;entryDx=0;entryDy=0;fontSize=10;strokeColor=#A8201A;" edge="1" parent="TPhWPj7ktUSEMXJKfaup-1" source="TPhWPj7ktUSEMXJKfaup-10">
          <mxGeometry relative="1" as="geometry">
            <mxPoint x="413.49" y="290" as="targetPoint" />
          </mxGeometry>
        </mxCell>
        <mxCell id="TPhWPj7ktUSEMXJKfaup-10" value="&lt;div&gt;&lt;b&gt;Create&lt;/b&gt; &lt;i&gt;tTCPRecv&lt;/i&gt;&lt;/div&gt;&lt;div&gt;&lt;i&gt;&lt;b&gt;Create &lt;/b&gt;tLoraRecv&lt;br&gt;&lt;/i&gt;&lt;/div&gt;" style="rounded=0;whiteSpace=wrap;html=1;sketch=0;fontColor=#143642;strokeColor=#0F8B8D;fillColor=#FAE5C7;" vertex="1" parent="TPhWPj7ktUSEMXJKfaup-1">
          <mxGeometry x="338.62" y="230" width="150.25" height="40" as="geometry" />
        </mxCell>
      </root>
    </mxGraphModel>
  </diagram>
  <diagram id="j-EsaiICLkAXH9BXeG3Y" name="run">
    <mxGraphModel dx="771" dy="437" grid="1" gridSize="10" guides="1" tooltips="1" connect="1" arrows="1" fold="1" page="1" pageScale="1" pageWidth="850" pageHeight="1100" math="0" shadow="0">
      <root>
        <mxCell id="tkKbSkR30T64cy6EXXTG-0" />
        <mxCell id="tkKbSkR30T64cy6EXXTG-1" parent="tkKbSkR30T64cy6EXXTG-0" />
        <mxCell id="tkKbSkR30T64cy6EXXTG-2" style="rounded=1;sketch=0;orthogonalLoop=1;jettySize=auto;html=1;exitX=0.5;exitY=1;exitDx=0;exitDy=0;entryX=0.5;entryY=0;entryDx=0;entryDy=0;fontColor=#143642;strokeColor=#A8201A;fillColor=#FAE5C7;" edge="1" parent="tkKbSkR30T64cy6EXXTG-1" source="tkKbSkR30T64cy6EXXTG-3">
          <mxGeometry relative="1" as="geometry">
            <mxPoint x="413.125" y="130" as="targetPoint" />
          </mxGeometry>
        </mxCell>
        <mxCell id="tkKbSkR30T64cy6EXXTG-3" value="Run" style="ellipse;whiteSpace=wrap;html=1;fillColor=#FAE5C7;strokeColor=#0F8B8D;fontColor=#143642;fontStyle=1" vertex="1" parent="tkKbSkR30T64cy6EXXTG-1">
          <mxGeometry x="358.31" y="50" width="109.63" height="40" as="geometry" />
        </mxCell>
        <mxCell id="tkKbSkR30T64cy6EXXTG-4" value="end" style="ellipse;whiteSpace=wrap;html=1;fillColor=#FAE5C7;strokeColor=#0F8B8D;fontColor=#143642;fontStyle=1" vertex="1" parent="tkKbSkR30T64cy6EXXTG-1">
          <mxGeometry x="389.13" y="190" width="48" height="30" as="geometry" />
        </mxCell>
        <mxCell id="tkKbSkR30T64cy6EXXTG-5" style="edgeStyle=orthogonalEdgeStyle;rounded=1;orthogonalLoop=1;jettySize=auto;html=1;exitX=0.5;exitY=1;exitDx=0;exitDy=0;entryX=0.5;entryY=0;entryDx=0;entryDy=0;fontSize=10;strokeColor=#A8201A;" edge="1" parent="tkKbSkR30T64cy6EXXTG-1" source="tkKbSkR30T64cy6EXXTG-6">
          <mxGeometry relative="1" as="geometry">
            <mxPoint x="412.87" y="190" as="targetPoint" />
          </mxGeometry>
        </mxCell>
        <mxCell id="tkKbSkR30T64cy6EXXTG-6" value="&lt;div&gt;&lt;b&gt;Join&lt;/b&gt; &lt;i&gt;tTCPRecv&lt;/i&gt;&lt;/div&gt;&lt;div&gt;&lt;b&gt;Join&lt;/b&gt;&lt;i&gt;&lt;b&gt; &lt;/b&gt;tLoraRecv&lt;br&gt;&lt;/i&gt;&lt;/div&gt;" style="rounded=0;whiteSpace=wrap;html=1;sketch=0;fontColor=#143642;strokeColor=#0F8B8D;fillColor=#FAE5C7;" vertex="1" parent="tkKbSkR30T64cy6EXXTG-1">
          <mxGeometry x="338" y="130" width="150.25" height="40" as="geometry" />
        </mxCell>
      </root>
    </mxGraphModel>
  </diagram>
  <diagram id="FENJ2H2G5J6c3p_rDh9S" name="ttcprecv">
    <mxGraphModel dx="771" dy="437" grid="1" gridSize="10" guides="1" tooltips="1" connect="1" arrows="1" fold="1" page="1" pageScale="1" pageWidth="850" pageHeight="1100" math="0" shadow="0">
      <root>
        <mxCell id="atJ6BWPMXhpa3b4_HaD2-0" />
        <mxCell id="atJ6BWPMXhpa3b4_HaD2-1" parent="atJ6BWPMXhpa3b4_HaD2-0" />
        <mxCell id="atJ6BWPMXhpa3b4_HaD2-2" style="edgeStyle=orthogonalEdgeStyle;curved=0;rounded=1;sketch=0;orthogonalLoop=1;jettySize=auto;html=1;exitX=0.5;exitY=1;exitDx=0;exitDy=0;entryX=0.5;entryY=0;entryDx=0;entryDy=0;fontColor=#143642;strokeColor=#A8201A;fillColor=#FAE5C7;" edge="1" parent="atJ6BWPMXhpa3b4_HaD2-1" source="atJ6BWPMXhpa3b4_HaD2-3" target="atJ6BWPMXhpa3b4_HaD2-5">
          <mxGeometry relative="1" as="geometry" />
        </mxCell>
        <mxCell id="atJ6BWPMXhpa3b4_HaD2-3" value="tTCPRecv" style="ellipse;whiteSpace=wrap;html=1;fillColor=#FAE5C7;strokeColor=#0F8B8D;fontColor=#143642;fontStyle=1" vertex="1" parent="atJ6BWPMXhpa3b4_HaD2-1">
          <mxGeometry x="352" y="40" width="125.5" height="50" as="geometry" />
        </mxCell>
        <mxCell id="atJ6BWPMXhpa3b4_HaD2-4" style="edgeStyle=orthogonalEdgeStyle;curved=0;rounded=1;sketch=0;orthogonalLoop=1;jettySize=auto;html=1;exitX=0.5;exitY=1;exitDx=0;exitDy=0;entryX=0.5;entryY=0;entryDx=0;entryDy=0;fontColor=#143642;strokeColor=#A8201A;fillColor=#FAE5C7;" edge="1" parent="atJ6BWPMXhpa3b4_HaD2-1" source="atJ6BWPMXhpa3b4_HaD2-5">
          <mxGeometry relative="1" as="geometry">
            <mxPoint x="415" y="170" as="targetPoint" />
          </mxGeometry>
        </mxCell>
        <mxCell id="atJ6BWPMXhpa3b4_HaD2-5" value="" style="ellipse;whiteSpace=wrap;html=1;aspect=fixed;rounded=0;sketch=0;fontColor=#143642;strokeColor=#0F8B8D;fillColor=#FAE5C7;" vertex="1" parent="atJ6BWPMXhpa3b4_HaD2-1">
          <mxGeometry x="405" y="130" width="20" height="20" as="geometry" />
        </mxCell>
        <mxCell id="atJ6BWPMXhpa3b4_HaD2-6" style="edgeStyle=orthogonalEdgeStyle;rounded=1;sketch=0;orthogonalLoop=1;jettySize=auto;html=1;entryX=0;entryY=0.5;entryDx=0;entryDy=0;fontColor=#143642;strokeColor=#A8201A;fillColor=#FAE5C7;exitX=0.5;exitY=1;exitDx=0;exitDy=0;" edge="1" parent="atJ6BWPMXhpa3b4_HaD2-1" source="atJ6BWPMXhpa3b4_HaD2-14" target="atJ6BWPMXhpa3b4_HaD2-5">
          <mxGeometry relative="1" as="geometry">
            <Array as="points">
              <mxPoint x="414" y="430" />
              <mxPoint x="290" y="430" />
              <mxPoint x="290" y="140" />
            </Array>
            <mxPoint x="414.75" y="730" as="sourcePoint" />
          </mxGeometry>
        </mxCell>
        <mxCell id="atJ6BWPMXhpa3b4_HaD2-7" style="edgeStyle=orthogonalEdgeStyle;curved=0;rounded=1;sketch=0;orthogonalLoop=1;jettySize=auto;html=1;exitX=1;exitY=0.5;exitDx=0;exitDy=0;entryX=1;entryY=0.5;entryDx=0;entryDy=0;fontColor=#143642;strokeColor=#A8201A;fillColor=#FAE5C7;" edge="1" parent="atJ6BWPMXhpa3b4_HaD2-1" source="atJ6BWPMXhpa3b4_HaD2-11" target="atJ6BWPMXhpa3b4_HaD2-5">
          <mxGeometry relative="1" as="geometry">
            <mxPoint x="457.2499999999999" y="630" as="sourcePoint" />
            <Array as="points">
              <mxPoint x="530" y="295" />
              <mxPoint x="530" y="140" />
            </Array>
          </mxGeometry>
        </mxCell>
        <mxCell id="atJ6BWPMXhpa3b4_HaD2-8" value="No" style="edgeLabel;html=1;align=center;verticalAlign=middle;resizable=0;points=[];fontColor=#143642;" vertex="1" connectable="0" parent="atJ6BWPMXhpa3b4_HaD2-7">
          <mxGeometry x="-0.9582" y="2" relative="1" as="geometry">
            <mxPoint as="offset" />
          </mxGeometry>
        </mxCell>
        <mxCell id="atJ6BWPMXhpa3b4_HaD2-9" style="edgeStyle=orthogonalEdgeStyle;sketch=0;orthogonalLoop=1;jettySize=auto;html=1;exitX=0;exitY=0.5;exitDx=0;exitDy=0;entryX=0.5;entryY=0;entryDx=0;entryDy=0;fontColor=#143642;strokeColor=#A8201A;fillColor=#FAE5C7;rounded=1;" edge="1" parent="atJ6BWPMXhpa3b4_HaD2-1" source="atJ6BWPMXhpa3b4_HaD2-11" target="atJ6BWPMXhpa3b4_HaD2-14">
          <mxGeometry relative="1" as="geometry">
            <Array as="points">
              <mxPoint x="324" y="295" />
              <mxPoint x="324" y="360" />
              <mxPoint x="414" y="360" />
            </Array>
            <mxPoint x="418.98" y="380" as="targetPoint" />
          </mxGeometry>
        </mxCell>
        <mxCell id="atJ6BWPMXhpa3b4_HaD2-10" value="Yes" style="edgeLabel;html=1;align=center;verticalAlign=middle;resizable=0;points=[];fontColor=#143642;" vertex="1" connectable="0" parent="atJ6BWPMXhpa3b4_HaD2-9">
          <mxGeometry x="-0.9088" y="-1" relative="1" as="geometry">
            <mxPoint as="offset" />
          </mxGeometry>
        </mxCell>
        <mxCell id="atJ6BWPMXhpa3b4_HaD2-11" value="&lt;div&gt;&lt;i&gt;message&lt;/i&gt; was&lt;/div&gt;&lt;div&gt;received?&lt;br&gt;&lt;/div&gt;" style="rhombus;whiteSpace=wrap;html=1;rounded=0;sketch=0;fontColor=#143642;strokeColor=#0F8B8D;fillColor=#FAE5C7;" vertex="1" parent="atJ6BWPMXhpa3b4_HaD2-1">
          <mxGeometry x="365" y="250" width="98" height="90" as="geometry" />
        </mxCell>
        <mxCell id="atJ6BWPMXhpa3b4_HaD2-12" value="Returns &lt;i&gt;message&lt;/i&gt;" style="edgeStyle=orthogonalEdgeStyle;rounded=1;orthogonalLoop=1;jettySize=auto;html=1;exitX=0.5;exitY=1;exitDx=0;exitDy=0;entryX=0.5;entryY=0;entryDx=0;entryDy=0;strokeColor=#A8201A;" edge="1" parent="atJ6BWPMXhpa3b4_HaD2-1" source="atJ6BWPMXhpa3b4_HaD2-13" target="atJ6BWPMXhpa3b4_HaD2-11">
          <mxGeometry relative="1" as="geometry" />
        </mxCell>
        <mxCell id="atJ6BWPMXhpa3b4_HaD2-13" value="&lt;i&gt;tcpclient&lt;/i&gt;&lt;b&gt;.recv&lt;/b&gt;()" style="shape=process;whiteSpace=wrap;html=1;backgroundOutline=1;rounded=0;sketch=0;fontColor=#143642;strokeColor=#0F8B8D;fillColor=#FAE5C7;" vertex="1" parent="atJ6BWPMXhpa3b4_HaD2-1">
          <mxGeometry x="340" y="170" width="150" height="30" as="geometry" />
        </mxCell>
        <mxCell id="atJ6BWPMXhpa3b4_HaD2-14" value="&lt;div&gt;&lt;i&gt;lora&lt;/i&gt;&lt;b&gt;.push(&lt;/b&gt;&lt;i&gt;message)&lt;/i&gt;&lt;/div&gt;" style="shape=process;whiteSpace=wrap;html=1;backgroundOutline=1;rounded=0;sketch=0;fontColor=#143642;strokeColor=#0F8B8D;fillColor=#FAE5C7;" vertex="1" parent="atJ6BWPMXhpa3b4_HaD2-1">
          <mxGeometry x="339" y="380" width="150" height="30" as="geometry" />
        </mxCell>
      </root>
    </mxGraphModel>
  </diagram>
  <diagram id="DJZtquHrUaa9BsF79rTj" name="tlorarecv">
    <mxGraphModel dx="1621" dy="437" grid="1" gridSize="10" guides="1" tooltips="1" connect="1" arrows="1" fold="1" page="1" pageScale="1" pageWidth="850" pageHeight="1100" math="0" shadow="0">
      <root>
        <mxCell id="I8GF2f7bAFX1AK28B-e9-0" />
        <mxCell id="I8GF2f7bAFX1AK28B-e9-1" parent="I8GF2f7bAFX1AK28B-e9-0" />
        <mxCell id="I8GF2f7bAFX1AK28B-e9-2" style="edgeStyle=orthogonalEdgeStyle;curved=0;rounded=1;sketch=0;orthogonalLoop=1;jettySize=auto;html=1;exitX=0.5;exitY=1;exitDx=0;exitDy=0;entryX=0.5;entryY=0;entryDx=0;entryDy=0;fontColor=#143642;strokeColor=#A8201A;fillColor=#FAE5C7;" edge="1" parent="I8GF2f7bAFX1AK28B-e9-1" source="I8GF2f7bAFX1AK28B-e9-3" target="I8GF2f7bAFX1AK28B-e9-5">
          <mxGeometry relative="1" as="geometry" />
        </mxCell>
        <mxCell id="I8GF2f7bAFX1AK28B-e9-3" value="tLoraRecv" style="ellipse;whiteSpace=wrap;html=1;fillColor=#FAE5C7;strokeColor=#0F8B8D;fontColor=#143642;fontStyle=1" vertex="1" parent="I8GF2f7bAFX1AK28B-e9-1">
          <mxGeometry x="-488" y="70" width="125.5" height="50" as="geometry" />
        </mxCell>
        <mxCell id="I8GF2f7bAFX1AK28B-e9-4" style="edgeStyle=orthogonalEdgeStyle;curved=0;rounded=1;sketch=0;orthogonalLoop=1;jettySize=auto;html=1;exitX=0.5;exitY=1;exitDx=0;exitDy=0;entryX=0.5;entryY=0;entryDx=0;entryDy=0;fontColor=#143642;strokeColor=#A8201A;fillColor=#FAE5C7;" edge="1" parent="I8GF2f7bAFX1AK28B-e9-1" source="I8GF2f7bAFX1AK28B-e9-5">
          <mxGeometry relative="1" as="geometry">
            <mxPoint x="-425" y="200" as="targetPoint" />
          </mxGeometry>
        </mxCell>
        <mxCell id="I8GF2f7bAFX1AK28B-e9-5" value="" style="ellipse;whiteSpace=wrap;html=1;aspect=fixed;rounded=0;sketch=0;fontColor=#143642;strokeColor=#0F8B8D;fillColor=#FAE5C7;" vertex="1" parent="I8GF2f7bAFX1AK28B-e9-1">
          <mxGeometry x="-435" y="160" width="20" height="20" as="geometry" />
        </mxCell>
        <mxCell id="I8GF2f7bAFX1AK28B-e9-6" style="edgeStyle=orthogonalEdgeStyle;rounded=1;sketch=0;orthogonalLoop=1;jettySize=auto;html=1;entryX=0;entryY=0.5;entryDx=0;entryDy=0;fontColor=#143642;strokeColor=#A8201A;fillColor=#FAE5C7;exitX=0.5;exitY=1;exitDx=0;exitDy=0;" edge="1" parent="I8GF2f7bAFX1AK28B-e9-1" source="I8GF2f7bAFX1AK28B-e9-14" target="I8GF2f7bAFX1AK28B-e9-5">
          <mxGeometry relative="1" as="geometry">
            <Array as="points">
              <mxPoint x="-425" y="460" />
              <mxPoint x="-550" y="460" />
              <mxPoint x="-550" y="170" />
            </Array>
            <mxPoint x="-425.25" y="760" as="sourcePoint" />
          </mxGeometry>
        </mxCell>
        <mxCell id="I8GF2f7bAFX1AK28B-e9-7" style="edgeStyle=orthogonalEdgeStyle;curved=0;rounded=1;sketch=0;orthogonalLoop=1;jettySize=auto;html=1;exitX=1;exitY=0.5;exitDx=0;exitDy=0;entryX=1;entryY=0.5;entryDx=0;entryDy=0;fontColor=#143642;strokeColor=#A8201A;fillColor=#FAE5C7;" edge="1" parent="I8GF2f7bAFX1AK28B-e9-1" source="I8GF2f7bAFX1AK28B-e9-11" target="I8GF2f7bAFX1AK28B-e9-5">
          <mxGeometry relative="1" as="geometry">
            <mxPoint x="-382.7500000000001" y="660" as="sourcePoint" />
            <Array as="points">
              <mxPoint x="-310" y="315" />
              <mxPoint x="-310" y="170" />
            </Array>
          </mxGeometry>
        </mxCell>
        <mxCell id="I8GF2f7bAFX1AK28B-e9-8" value="No" style="edgeLabel;html=1;align=center;verticalAlign=middle;resizable=0;points=[];fontColor=#143642;" vertex="1" connectable="0" parent="I8GF2f7bAFX1AK28B-e9-7">
          <mxGeometry x="-0.9582" y="2" relative="1" as="geometry">
            <mxPoint as="offset" />
          </mxGeometry>
        </mxCell>
        <mxCell id="I8GF2f7bAFX1AK28B-e9-9" style="edgeStyle=orthogonalEdgeStyle;sketch=0;orthogonalLoop=1;jettySize=auto;html=1;exitX=0;exitY=0.5;exitDx=0;exitDy=0;entryX=0.5;entryY=0;entryDx=0;entryDy=0;fontColor=#143642;strokeColor=#A8201A;fillColor=#FAE5C7;rounded=1;" edge="1" parent="I8GF2f7bAFX1AK28B-e9-1" source="I8GF2f7bAFX1AK28B-e9-11" target="I8GF2f7bAFX1AK28B-e9-14">
          <mxGeometry relative="1" as="geometry">
            <Array as="points">
              <mxPoint x="-516" y="315" />
              <mxPoint x="-516" y="380" />
              <mxPoint x="-425" y="380" />
            </Array>
            <mxPoint x="-421.02" y="410" as="targetPoint" />
          </mxGeometry>
        </mxCell>
        <mxCell id="I8GF2f7bAFX1AK28B-e9-10" value="Yes" style="edgeLabel;html=1;align=center;verticalAlign=middle;resizable=0;points=[];fontColor=#143642;" vertex="1" connectable="0" parent="I8GF2f7bAFX1AK28B-e9-9">
          <mxGeometry x="-0.9088" y="-1" relative="1" as="geometry">
            <mxPoint as="offset" />
          </mxGeometry>
        </mxCell>
        <mxCell id="I8GF2f7bAFX1AK28B-e9-11" value="&lt;div&gt;&lt;i&gt;message&lt;/i&gt; was&lt;/div&gt;&lt;div&gt;received?&lt;br&gt;&lt;/div&gt;" style="rhombus;whiteSpace=wrap;html=1;rounded=0;sketch=0;fontColor=#143642;strokeColor=#0F8B8D;fillColor=#FAE5C7;" vertex="1" parent="I8GF2f7bAFX1AK28B-e9-1">
          <mxGeometry x="-474" y="270" width="98" height="90" as="geometry" />
        </mxCell>
        <mxCell id="I8GF2f7bAFX1AK28B-e9-12" value="Returns &lt;i&gt;message&lt;/i&gt;" style="edgeStyle=orthogonalEdgeStyle;rounded=1;orthogonalLoop=1;jettySize=auto;html=1;exitX=0.5;exitY=1;exitDx=0;exitDy=0;entryX=0.5;entryY=0;entryDx=0;entryDy=0;strokeColor=#A8201A;" edge="1" parent="I8GF2f7bAFX1AK28B-e9-1" source="I8GF2f7bAFX1AK28B-e9-13" target="I8GF2f7bAFX1AK28B-e9-11">
          <mxGeometry relative="1" as="geometry" />
        </mxCell>
        <mxCell id="I8GF2f7bAFX1AK28B-e9-13" value="&lt;i&gt;lora&lt;/i&gt;&lt;b&gt;.recv&lt;/b&gt;()" style="shape=process;whiteSpace=wrap;html=1;backgroundOutline=1;rounded=0;sketch=0;fontColor=#143642;strokeColor=#0F8B8D;fillColor=#FAE5C7;" vertex="1" parent="I8GF2f7bAFX1AK28B-e9-1">
          <mxGeometry x="-500" y="200" width="150" height="30" as="geometry" />
        </mxCell>
        <mxCell id="I8GF2f7bAFX1AK28B-e9-14" value="&lt;div&gt;&lt;i&gt;tcpclient&lt;/i&gt;&lt;b&gt;.push&lt;/b&gt;&lt;/div&gt;&lt;div&gt;&lt;b&gt;(&lt;/b&gt;&lt;i&gt;message&lt;b&gt;)&lt;/b&gt;&lt;/i&gt;&lt;/div&gt;" style="shape=process;whiteSpace=wrap;html=1;backgroundOutline=1;rounded=0;sketch=0;fontColor=#143642;strokeColor=#0F8B8D;fillColor=#FAE5C7;" vertex="1" parent="I8GF2f7bAFX1AK28B-e9-1">
          <mxGeometry x="-500" y="400" width="150" height="40" as="geometry" />
        </mxCell>
      </root>
    </mxGraphModel>
  </diagram>
</mxfile>
